<mxfile host="app.diagrams.net" agent="Mozilla/5.0 (Windows NT 10.0; Win64; x64) AppleWebKit/537.36 (KHTML, like Gecko) Chrome/136.0.0.0 Safari/537.36" version="27.0.9">
  <diagram name="Trang-1" id="mqPgCvN7J7pZEJMilYxO">
    <mxGraphModel grid="1" page="1" gridSize="10" guides="1" tooltips="1" connect="1" arrows="1" fold="1" pageScale="1" pageWidth="827" pageHeight="1169" math="0" shadow="0">
      <root>
        <mxCell id="0" />
        <mxCell id="1" parent="0" />
        <mxCell id="8p1cdF7B5ckP8pbLe4gU-1" value="Hệ Thống Quản Lý Tin Tức" style="rounded=1;whiteSpace=wrap;html=1;" vertex="1" parent="1">
          <mxGeometry x="-1290" y="138" width="120" height="60" as="geometry" />
        </mxCell>
        <mxCell id="8p1cdF7B5ckP8pbLe4gU-2" value="Quản Trị Viên" style="shape=umlActor;verticalLabelPosition=bottom;verticalAlign=top;html=1;outlineConnect=0;" vertex="1" parent="1">
          <mxGeometry x="-1120" y="230" width="30" height="60" as="geometry" />
        </mxCell>
        <mxCell id="8p1cdF7B5ckP8pbLe4gU-3" value="Người dùng" style="shape=umlActor;verticalLabelPosition=bottom;verticalAlign=top;html=1;outlineConnect=0;" vertex="1" parent="1">
          <mxGeometry x="-1420" y="230" width="30" height="60" as="geometry" />
        </mxCell>
        <mxCell id="8p1cdF7B5ckP8pbLe4gU-5" value="Liên Hệ" style="ellipse;whiteSpace=wrap;html=1;" vertex="1" parent="1">
          <mxGeometry x="-1700" y="268" width="120" height="80" as="geometry" />
        </mxCell>
        <mxCell id="8p1cdF7B5ckP8pbLe4gU-6" value="Quản lí Người dùng" style="ellipse;whiteSpace=wrap;html=1;" vertex="1" parent="1">
          <mxGeometry x="-930" y="348" width="120" height="80" as="geometry" />
        </mxCell>
        <mxCell id="8p1cdF7B5ckP8pbLe4gU-7" value="Quản lí bài báo" style="ellipse;whiteSpace=wrap;html=1;" vertex="1" parent="1">
          <mxGeometry x="-1060" y="398" width="120" height="80" as="geometry" />
        </mxCell>
        <mxCell id="8p1cdF7B5ckP8pbLe4gU-12" value="" style="endArrow=none;html=1;rounded=0;exitX=0.5;exitY=0.5;exitDx=0;exitDy=0;exitPerimeter=0;entryX=0.5;entryY=0;entryDx=0;entryDy=0;" edge="1" parent="1" source="8p1cdF7B5ckP8pbLe4gU-2" target="8p1cdF7B5ckP8pbLe4gU-6">
          <mxGeometry width="50" height="50" relative="1" as="geometry">
            <mxPoint x="-1050" y="260" as="sourcePoint" />
            <mxPoint x="-1000" y="210" as="targetPoint" />
          </mxGeometry>
        </mxCell>
        <mxCell id="8p1cdF7B5ckP8pbLe4gU-13" value="" style="endArrow=none;html=1;rounded=0;exitX=0.5;exitY=0.5;exitDx=0;exitDy=0;exitPerimeter=0;entryX=0.5;entryY=0;entryDx=0;entryDy=0;" edge="1" parent="1" source="8p1cdF7B5ckP8pbLe4gU-2" target="8p1cdF7B5ckP8pbLe4gU-7">
          <mxGeometry width="50" height="50" relative="1" as="geometry">
            <mxPoint x="-980" y="497" as="sourcePoint" />
            <mxPoint x="-857" y="410" as="targetPoint" />
          </mxGeometry>
        </mxCell>
        <mxCell id="8p1cdF7B5ckP8pbLe4gU-19" value="" style="endArrow=none;html=1;rounded=0;exitX=0.604;exitY=0.006;exitDx=0;exitDy=0;exitPerimeter=0;entryX=0.5;entryY=0.5;entryDx=0;entryDy=0;entryPerimeter=0;" edge="1" parent="1" source="8p1cdF7B5ckP8pbLe4gU-5" target="8p1cdF7B5ckP8pbLe4gU-3">
          <mxGeometry width="50" height="50" relative="1" as="geometry">
            <mxPoint x="-1100" y="517" as="sourcePoint" />
            <mxPoint x="-1100" y="260" as="targetPoint" />
          </mxGeometry>
        </mxCell>
        <mxCell id="8p1cdF7B5ckP8pbLe4gU-35" value="Tên người dùng/ mật khẩu" style="ellipse;whiteSpace=wrap;html=1;" vertex="1" parent="1">
          <mxGeometry x="-730" y="470" width="120" height="80" as="geometry" />
        </mxCell>
        <mxCell id="8p1cdF7B5ckP8pbLe4gU-36" value="" style="endArrow=classic;html=1;rounded=0;entryX=0.5;entryY=0;entryDx=0;entryDy=0;exitX=1;exitY=1;exitDx=0;exitDy=0;" edge="1" parent="1" source="8p1cdF7B5ckP8pbLe4gU-6" target="8p1cdF7B5ckP8pbLe4gU-35">
          <mxGeometry width="50" height="50" relative="1" as="geometry">
            <mxPoint x="-1100" y="570" as="sourcePoint" />
            <mxPoint x="-850" y="500" as="targetPoint" />
          </mxGeometry>
        </mxCell>
        <mxCell id="8p1cdF7B5ckP8pbLe4gU-37" value="Thêm bài báo" style="ellipse;whiteSpace=wrap;html=1;" vertex="1" parent="1">
          <mxGeometry x="-1110" y="595.5" width="120" height="80" as="geometry" />
        </mxCell>
        <mxCell id="8p1cdF7B5ckP8pbLe4gU-38" value="" style="endArrow=classic;html=1;rounded=0;entryX=0.5;entryY=0;entryDx=0;entryDy=0;exitX=0.5;exitY=1;exitDx=0;exitDy=0;" edge="1" parent="1" source="8p1cdF7B5ckP8pbLe4gU-7" target="8p1cdF7B5ckP8pbLe4gU-37">
          <mxGeometry width="50" height="50" relative="1" as="geometry">
            <mxPoint x="-860" y="520" as="sourcePoint" />
            <mxPoint x="-702" y="574" as="targetPoint" />
          </mxGeometry>
        </mxCell>
        <mxCell id="8p1cdF7B5ckP8pbLe4gU-39" value="Sửa bài báo" style="ellipse;whiteSpace=wrap;html=1;" vertex="1" parent="1">
          <mxGeometry x="-980" y="578" width="120" height="80" as="geometry" />
        </mxCell>
        <mxCell id="8p1cdF7B5ckP8pbLe4gU-40" value="Xóa bài báo" style="ellipse;whiteSpace=wrap;html=1;" vertex="1" parent="1">
          <mxGeometry x="-860" y="530" width="120" height="80" as="geometry" />
        </mxCell>
        <mxCell id="8p1cdF7B5ckP8pbLe4gU-41" value="" style="endArrow=classic;html=1;rounded=0;entryX=0.5;entryY=0;entryDx=0;entryDy=0;exitX=0.5;exitY=1;exitDx=0;exitDy=0;" edge="1" parent="1" source="8p1cdF7B5ckP8pbLe4gU-7" target="8p1cdF7B5ckP8pbLe4gU-39">
          <mxGeometry width="50" height="50" relative="1" as="geometry">
            <mxPoint x="-1170" y="520" as="sourcePoint" />
            <mxPoint x="-1220" y="638" as="targetPoint" />
          </mxGeometry>
        </mxCell>
        <mxCell id="8p1cdF7B5ckP8pbLe4gU-42" value="" style="endArrow=classic;html=1;rounded=0;entryX=0;entryY=0;entryDx=0;entryDy=0;exitX=0.5;exitY=1;exitDx=0;exitDy=0;" edge="1" parent="1" source="8p1cdF7B5ckP8pbLe4gU-7" target="8p1cdF7B5ckP8pbLe4gU-40">
          <mxGeometry width="50" height="50" relative="1" as="geometry">
            <mxPoint x="-850" y="520" as="sourcePoint" />
            <mxPoint x="-900" y="638" as="targetPoint" />
          </mxGeometry>
        </mxCell>
        <mxCell id="8p1cdF7B5ckP8pbLe4gU-55" value="&amp;lt;&amp;lt;extend&amp;gt;&amp;gt;" style="text;html=1;align=center;verticalAlign=middle;whiteSpace=wrap;rounded=0;" vertex="1" parent="1">
          <mxGeometry x="-1740" y="398" width="60" height="30" as="geometry" />
        </mxCell>
        <mxCell id="8p1cdF7B5ckP8pbLe4gU-62" value="&amp;lt;&amp;lt;include&amp;gt;&amp;gt;" style="text;html=1;align=center;verticalAlign=middle;whiteSpace=wrap;rounded=0;rotation=15;" vertex="1" parent="1">
          <mxGeometry x="-780" y="398" width="60" height="30" as="geometry" />
        </mxCell>
        <mxCell id="8p1cdF7B5ckP8pbLe4gU-63" value="&amp;lt;&amp;lt;include&amp;gt;&amp;gt;" style="text;html=1;align=center;verticalAlign=middle;whiteSpace=wrap;rounded=0;rotation=15;" vertex="1" parent="1">
          <mxGeometry x="-940" y="480" width="60" height="30" as="geometry" />
        </mxCell>
        <mxCell id="8p1cdF7B5ckP8pbLe4gU-64" value="&amp;lt;&amp;lt;include&amp;gt;&amp;gt;" style="text;html=1;align=center;verticalAlign=middle;whiteSpace=wrap;rounded=0;rotation=60;" vertex="1" parent="1">
          <mxGeometry x="-1000" y="520" width="60" height="30" as="geometry" />
        </mxCell>
        <mxCell id="8p1cdF7B5ckP8pbLe4gU-65" value="&amp;lt;&amp;lt;include&amp;gt;&amp;gt;" style="text;html=1;align=center;verticalAlign=middle;whiteSpace=wrap;rounded=0;rotation=-65;" vertex="1" parent="1">
          <mxGeometry x="-1080" y="520" width="60" height="30" as="geometry" />
        </mxCell>
        <mxCell id="8p1cdF7B5ckP8pbLe4gU-67" value="Đăng kí/Đăng nhập tài khoản" style="ellipse;whiteSpace=wrap;html=1;" vertex="1" parent="1">
          <mxGeometry x="-1640" y="370" width="120" height="80" as="geometry" />
        </mxCell>
        <mxCell id="8p1cdF7B5ckP8pbLe4gU-69" value="Truy cập Trang báo" style="ellipse;whiteSpace=wrap;html=1;" vertex="1" parent="1">
          <mxGeometry x="-1460" y="390" width="120" height="80" as="geometry" />
        </mxCell>
        <mxCell id="8p1cdF7B5ckP8pbLe4gU-70" value="" style="endArrow=none;html=1;rounded=0;exitX=0.5;exitY=0;exitDx=0;exitDy=0;entryX=0.5;entryY=0.5;entryDx=0;entryDy=0;entryPerimeter=0;" edge="1" parent="1" source="8p1cdF7B5ckP8pbLe4gU-67" target="8p1cdF7B5ckP8pbLe4gU-3">
          <mxGeometry width="50" height="50" relative="1" as="geometry">
            <mxPoint x="-1360" y="768" as="sourcePoint" />
            <mxPoint x="-1097" y="630" as="targetPoint" />
          </mxGeometry>
        </mxCell>
        <mxCell id="8p1cdF7B5ckP8pbLe4gU-71" value="" style="endArrow=none;html=1;rounded=0;exitX=0.5;exitY=0;exitDx=0;exitDy=0;entryX=0.5;entryY=0.5;entryDx=0;entryDy=0;entryPerimeter=0;" edge="1" parent="1" source="8p1cdF7B5ckP8pbLe4gU-69" target="8p1cdF7B5ckP8pbLe4gU-3">
          <mxGeometry width="50" height="50" relative="1" as="geometry">
            <mxPoint x="-1320" y="598" as="sourcePoint" />
            <mxPoint x="-1057" y="460" as="targetPoint" />
          </mxGeometry>
        </mxCell>
        <mxCell id="8p1cdF7B5ckP8pbLe4gU-72" value="" style="endArrow=classic;html=1;rounded=0;entryX=0;entryY=1;entryDx=0;entryDy=0;exitX=0.5;exitY=0;exitDx=0;exitDy=0;" edge="1" parent="1" source="8p1cdF7B5ckP8pbLe4gU-74" target="8p1cdF7B5ckP8pbLe4gU-67">
          <mxGeometry width="50" height="50" relative="1" as="geometry">
            <mxPoint x="-1640" y="620" as="sourcePoint" />
            <mxPoint x="-1590" y="660" as="targetPoint" />
          </mxGeometry>
        </mxCell>
        <mxCell id="8p1cdF7B5ckP8pbLe4gU-74" value="Xác nhận người dùng" style="ellipse;whiteSpace=wrap;html=1;" vertex="1" parent="1">
          <mxGeometry x="-1870" y="428" width="120" height="80" as="geometry" />
        </mxCell>
        <mxCell id="8p1cdF7B5ckP8pbLe4gU-75" value="Xác nhận Quản trị viên" style="ellipse;whiteSpace=wrap;html=1;" vertex="1" parent="1">
          <mxGeometry x="-1774" y="515.5" width="120" height="80" as="geometry" />
        </mxCell>
        <mxCell id="8p1cdF7B5ckP8pbLe4gU-76" value="" style="endArrow=classic;html=1;rounded=0;entryX=0.274;entryY=0.983;entryDx=0;entryDy=0;exitX=0.5;exitY=0;exitDx=0;exitDy=0;entryPerimeter=0;" edge="1" parent="1" source="8p1cdF7B5ckP8pbLe4gU-75" target="8p1cdF7B5ckP8pbLe4gU-67">
          <mxGeometry width="50" height="50" relative="1" as="geometry">
            <mxPoint x="-1470" y="620" as="sourcePoint" />
            <mxPoint x="-1420" y="570" as="targetPoint" />
          </mxGeometry>
        </mxCell>
        <mxCell id="8p1cdF7B5ckP8pbLe4gU-77" value="" style="endArrow=classic;html=1;rounded=0;exitX=0.5;exitY=1;exitDx=0;exitDy=0;entryX=1;entryY=0;entryDx=0;entryDy=0;" edge="1" parent="1" source="8p1cdF7B5ckP8pbLe4gU-69" target="8p1cdF7B5ckP8pbLe4gU-78">
          <mxGeometry width="50" height="50" relative="1" as="geometry">
            <mxPoint x="-1390" y="560" as="sourcePoint" />
            <mxPoint x="-1490" y="540" as="targetPoint" />
          </mxGeometry>
        </mxCell>
        <mxCell id="8p1cdF7B5ckP8pbLe4gU-78" value="Xem bài báo" style="ellipse;whiteSpace=wrap;html=1;" vertex="1" parent="1">
          <mxGeometry x="-1654" y="575" width="120" height="80" as="geometry" />
        </mxCell>
        <mxCell id="8p1cdF7B5ckP8pbLe4gU-79" value="Yêu thích bài báo" style="ellipse;whiteSpace=wrap;html=1;" vertex="1" parent="1">
          <mxGeometry x="-1550" y="642.5" width="120" height="80" as="geometry" />
        </mxCell>
        <mxCell id="8p1cdF7B5ckP8pbLe4gU-80" value="Tìm Kiếm bài báo" style="ellipse;whiteSpace=wrap;html=1;" vertex="1" parent="1">
          <mxGeometry x="-1480" y="718" width="120" height="80" as="geometry" />
        </mxCell>
        <mxCell id="8p1cdF7B5ckP8pbLe4gU-82" value="" style="endArrow=classic;html=1;rounded=0;exitX=0.5;exitY=1;exitDx=0;exitDy=0;entryX=0.5;entryY=0;entryDx=0;entryDy=0;" edge="1" parent="1" source="8p1cdF7B5ckP8pbLe4gU-69" target="8p1cdF7B5ckP8pbLe4gU-79">
          <mxGeometry width="50" height="50" relative="1" as="geometry">
            <mxPoint x="-1222" y="477.5" as="sourcePoint" />
            <mxPoint x="-1654" y="570" as="targetPoint" />
          </mxGeometry>
        </mxCell>
        <mxCell id="8p1cdF7B5ckP8pbLe4gU-83" value="" style="endArrow=classic;html=1;rounded=0;exitX=0.5;exitY=1;exitDx=0;exitDy=0;entryX=0.5;entryY=0;entryDx=0;entryDy=0;" edge="1" parent="1" source="8p1cdF7B5ckP8pbLe4gU-69" target="8p1cdF7B5ckP8pbLe4gU-80">
          <mxGeometry width="50" height="50" relative="1" as="geometry">
            <mxPoint x="-1118" y="510" as="sourcePoint" />
            <mxPoint x="-1270" y="627" as="targetPoint" />
          </mxGeometry>
        </mxCell>
        <mxCell id="8p1cdF7B5ckP8pbLe4gU-84" value="Các Danh Mục" style="ellipse;whiteSpace=wrap;html=1;" vertex="1" parent="1">
          <mxGeometry x="-1400" y="640" width="120" height="80" as="geometry" />
        </mxCell>
        <mxCell id="8p1cdF7B5ckP8pbLe4gU-85" value="Bài Báo Đề Xuất" style="ellipse;whiteSpace=wrap;html=1;" vertex="1" parent="1">
          <mxGeometry x="-1280" y="610" width="120" height="80" as="geometry" />
        </mxCell>
        <mxCell id="8p1cdF7B5ckP8pbLe4gU-86" value="" style="endArrow=classic;html=1;rounded=0;exitX=0.5;exitY=1;exitDx=0;exitDy=0;entryX=0.5;entryY=0;entryDx=0;entryDy=0;" edge="1" parent="1" source="8p1cdF7B5ckP8pbLe4gU-69" target="8p1cdF7B5ckP8pbLe4gU-84">
          <mxGeometry width="50" height="50" relative="1" as="geometry">
            <mxPoint x="-1200" y="490" as="sourcePoint" />
            <mxPoint x="-1220" y="738" as="targetPoint" />
          </mxGeometry>
        </mxCell>
        <mxCell id="8p1cdF7B5ckP8pbLe4gU-87" value="" style="endArrow=classic;html=1;rounded=0;exitX=0.5;exitY=1;exitDx=0;exitDy=0;entryX=0.5;entryY=0;entryDx=0;entryDy=0;" edge="1" parent="1" source="8p1cdF7B5ckP8pbLe4gU-69" target="8p1cdF7B5ckP8pbLe4gU-85">
          <mxGeometry width="50" height="50" relative="1" as="geometry">
            <mxPoint x="-1230" y="480" as="sourcePoint" />
            <mxPoint x="-1250" y="728" as="targetPoint" />
          </mxGeometry>
        </mxCell>
        <mxCell id="8p1cdF7B5ckP8pbLe4gU-89" value="&amp;lt;&amp;lt;include&amp;gt;&amp;gt;" style="text;html=1;align=center;verticalAlign=middle;whiteSpace=wrap;rounded=0;rotation=-40;" vertex="1" parent="1">
          <mxGeometry x="-1530" y="508" width="60" height="30" as="geometry" />
        </mxCell>
        <mxCell id="8p1cdF7B5ckP8pbLe4gU-90" value="&amp;lt;&amp;lt;include&amp;gt;&amp;gt;" style="text;html=1;align=center;verticalAlign=middle;whiteSpace=wrap;rounded=0;rotation=-55;" vertex="1" parent="1">
          <mxGeometry x="-1500" y="540.5" width="60" height="30" as="geometry" />
        </mxCell>
        <mxCell id="8p1cdF7B5ckP8pbLe4gU-91" value="&amp;lt;&amp;lt;include&amp;gt;&amp;gt;" style="text;html=1;align=center;verticalAlign=middle;whiteSpace=wrap;rounded=0;rotation=-75;" vertex="1" parent="1">
          <mxGeometry x="-1460" y="575" width="60" height="30" as="geometry" />
        </mxCell>
        <mxCell id="8p1cdF7B5ckP8pbLe4gU-93" value="&amp;lt;&amp;lt;include&amp;gt;&amp;gt;" style="text;html=1;align=center;verticalAlign=middle;whiteSpace=wrap;rounded=0;rotation=60;" vertex="1" parent="1">
          <mxGeometry x="-1370" y="555" width="60" height="30" as="geometry" />
        </mxCell>
        <mxCell id="8p1cdF7B5ckP8pbLe4gU-94" value="&amp;lt;&amp;lt;include&amp;gt;&amp;gt;" style="text;html=1;align=center;verticalAlign=middle;whiteSpace=wrap;rounded=0;rotation=30;" vertex="1" parent="1">
          <mxGeometry x="-1330" y="501" width="60" height="30" as="geometry" />
        </mxCell>
        <mxCell id="8p1cdF7B5ckP8pbLe4gU-95" value="&amp;lt;&amp;lt;extend&amp;gt;&amp;gt;" style="text;html=1;align=center;verticalAlign=middle;whiteSpace=wrap;rounded=0;rotation=-30;" vertex="1" parent="1">
          <mxGeometry x="-1670" y="485" width="60" height="30" as="geometry" />
        </mxCell>
        <mxCell id="8p1cdF7B5ckP8pbLe4gU-96" value="" style="endArrow=none;html=1;rounded=0;entryX=0.5;entryY=1;entryDx=0;entryDy=0;" edge="1" parent="1" target="8p1cdF7B5ckP8pbLe4gU-1">
          <mxGeometry width="50" height="50" relative="1" as="geometry">
            <mxPoint x="-1410" y="260" as="sourcePoint" />
            <mxPoint x="-1260" y="260" as="targetPoint" />
          </mxGeometry>
        </mxCell>
        <mxCell id="8p1cdF7B5ckP8pbLe4gU-98" value="" style="endArrow=none;html=1;rounded=0;exitX=0.5;exitY=0.5;exitDx=0;exitDy=0;exitPerimeter=0;" edge="1" parent="1" source="8p1cdF7B5ckP8pbLe4gU-2">
          <mxGeometry width="50" height="50" relative="1" as="geometry">
            <mxPoint x="-1300" y="320" as="sourcePoint" />
            <mxPoint x="-1230" y="200" as="targetPoint" />
          </mxGeometry>
        </mxCell>
        <mxCell id="ZMWOOxvB1r_szkzhrwIp-1" value="" style="endArrow=none;html=1;rounded=0;exitX=1;exitY=0;exitDx=0;exitDy=0;entryX=0.5;entryY=0.5;entryDx=0;entryDy=0;entryPerimeter=0;" edge="1" parent="1" source="8p1cdF7B5ckP8pbLe4gU-69" target="8p1cdF7B5ckP8pbLe4gU-2">
          <mxGeometry width="50" height="50" relative="1" as="geometry">
            <mxPoint x="-1200" y="360" as="sourcePoint" />
            <mxPoint x="-1150" y="310" as="targetPoint" />
          </mxGeometry>
        </mxCell>
      </root>
    </mxGraphModel>
  </diagram>
</mxfile>
